<svg xmlns="http://www.w3.org/2000/svg" viewBox="0 0 120 120" fill="none">
  <circle cx="60" cy="60" r="56" fill="#463C3C"/>
  <path d="M60 12 C36 12 18 30 18 54 C18 78 36 96 60 96 C72 96 82 92 90 84 L78 74 C73 79 67 82 60 82 C42 82 28 68 28 50 C28 32 42 18 60 18 C72 18 82 24 88 34 L76 40 C72 32 67 28 60 28 C48 28 38 38 38 50 C38 62 48 72 60 72 C67 72 73 69 77 64 L60 64 L60 54 L88 54 C88 30 76 12 60 12 Z" fill="#F05A32"/>
  <rect x="24" y="52" width="22" height="8" rx="2" fill="#463C3C"/>
</svg>
